<svg width="43" height="40" viewBox="0 0 43 40" fill="none" xmlns="http://www.w3.org/2000/svg">
<g clip-path="url(#clip0_103_239)">
<path d="M6.49488 33.5003H2.25195L14.5238 0.323975H18.7015L30.9733 33.5003H26.7304L16.7432 5.57259H16.4821L6.49488 33.5003ZM8.06148 20.5408H25.1638V24.1047H8.06148V20.5408Z" fill="#181818"/>
<path d="M34.0739 14.2555C33.7149 13.1648 33.2416 12.1874 32.6541 11.3234C32.0776 10.4487 31.3867 9.7035 30.5817 9.08791C29.7875 8.47233 28.8845 8.00254 27.8727 7.67855C26.8609 7.35459 25.7513 7.19258 24.5436 7.19258C22.5636 7.19258 20.7631 7.70018 19.1421 8.71531C17.521 9.73048 16.2319 11.2262 15.2745 13.2026C14.3171 15.1789 13.8384 17.6034 13.8384 20.4761C13.8384 23.3488 14.3225 25.7733 15.2908 27.7496C16.2591 29.7259 17.57 31.2217 19.2237 32.2368C20.8773 33.252 22.7377 33.7596 24.8047 33.7596C26.7195 33.7596 28.4058 33.3546 29.8636 32.5446C31.3323 31.7239 32.4746 30.5683 33.2906 29.0779C34.1174 27.5768 34.5308 25.8111 34.5308 23.7808L35.7711 24.0399H25.7186V20.4761H38.4474V24.0399C38.4474 26.7722 37.8601 29.1482 36.685 31.1677C35.5209 33.1872 33.9107 34.7532 31.8545 35.8654C29.8092 36.967 27.4593 37.5179 24.8047 37.5179C21.8456 37.5179 19.2454 36.8265 17.0043 35.4443C14.774 34.062 13.0333 32.0964 11.7822 29.5477C10.542 26.999 9.92188 23.9751 9.92188 20.4761C9.92188 17.8518 10.2754 15.4921 10.9826 13.3969C11.7006 11.291 12.7124 9.49829 14.0179 8.01875C15.3234 6.53921 16.8683 5.40526 18.6525 4.61687C20.4367 3.8285 22.4004 3.43433 24.5436 3.43433C26.3061 3.43433 27.9489 3.69892 29.472 4.22808C31.0059 4.74648 32.3713 5.48624 33.568 6.44741C34.7756 7.39779 35.782 8.53712 36.587 9.86548C37.3923 11.183 37.947 12.6464 38.2514 14.2555H34.0739Z" fill="#181818"/>
<path d="M0 39.0244H42.364" stroke="#AB87FF"/>
</g>
<defs>
<clipPath id="clip0_103_239">
<rect width="42.364" height="39.2025" fill="white"/>
</clipPath>
</defs>
</svg>
