<svg width="823" height="893" viewBox="0 0 823 893" fill="none" xmlns="http://www.w3.org/2000/svg">
<path d="M611.894 847.318C596.522 855.143 593.595 847.758 590.474 793.3L587.704 744.06L577.364 740.823C571.668 739.063 552.121 735.261 533.861 732.37C364.997 705.691 257.428 626.66 219.699 501.594C212.364 477.272 207.409 330.774 212.715 295.768L216.071 273.771L231.404 297.339C255.907 335.016 286.535 356.919 354.502 385.326C385.52 398.272 424.068 415.807 440.143 424.26C518.449 465.362 572.253 533.112 590.786 614.028C599.838 653.402 600.306 653.653 608.07 623.455C626.759 550.583 658.558 501.185 716.927 454.301C753.017 425.328 783.762 408.768 863.668 375.239C934.756 345.449 959.415 329.172 983.527 296.145C999.641 274.054 999.914 273.897 1002.45 283.199C1003.85 288.383 1005.26 334.576 1005.49 385.829C1006 487.045 1003.43 507.061 984.698 547.158C953.992 612.865 885.4 671.251 801.866 702.769C769.56 714.961 699.564 731.176 660.509 735.512C649.857 736.675 636.748 740.32 631.402 743.557C621.921 749.307 621.609 750.847 619.697 796.914C618.137 834.434 616.537 844.961 611.894 847.318ZM645.058 463.194C610.411 493.329 606.783 494.775 593.712 483.651C567.298 461.151 522.702 413.042 509.827 393.182C483.764 352.991 477.248 330.083 477.638 280.056C477.95 241.908 479.355 232.386 488.368 208.473C500.892 175.258 524.731 136.292 559.183 92.6763C585.714 59.0843 590.747 48.8087 595.429 18.7676C598.902 -3.35476 606.042 -6.30859 611.894 11.98C621.063 40.6071 628.164 54.8735 644.59 77.53C702.53 157.441 713.103 173.624 722.506 196.5C750.403 264.501 745.136 331.214 706.977 392.742C689.225 421.4 676.545 435.824 645.058 463.194ZM515.601 704.34C567.025 714.018 571.239 713.673 569.873 699.846C568.391 685.454 543.342 643.064 519.152 614.248C491.996 581.787 466.713 560.293 409.398 520.794C335.969 470.201 296.016 436.735 268.626 402.923C255.204 386.394 242.485 373.699 240.378 374.767C234.33 377.753 240.807 467.562 249.391 500.022C258.131 533.206 282.711 576.225 308.891 604.067C353.721 651.831 428.126 687.905 515.601 704.34ZM647.048 705.063C646.931 713.138 689.459 707.608 750.559 691.582C857.621 663.489 929.645 606.738 963.785 523.59C975.217 495.749 976.153 490.03 977.753 438.306C979.821 372.599 976.894 363.361 961.678 387.525C944.12 415.43 905.416 453.327 860.43 486.573C733.392 580.499 700.969 610.98 666.439 668.768C655.827 686.585 647.087 702.894 647.048 705.063ZM1186.53 891.248C1184.11 893.448 83.8824 893.637 38.3501 891.468C1.90856 889.709 1.24528 889.552 0.113801 881.444C-0.549481 876.856 1.7525 870.886 5.30301 868.026C11.1945 863.281 58.7947 862.936 598.706 863.69C1114.08 864.444 1186.18 865.104 1189.3 869.22C1192.58 873.462 1190.82 887.352 1186.53 891.248ZM622.507 276.725L620.946 446.225L640.493 429.13C679.9 394.659 700.969 359.684 709.397 314.811C720.438 256.143 697.496 189.493 641.742 118.444C632.885 107.131 625.277 99.998 624.848 102.543C624.418 105.12 623.365 183.491 622.507 276.725ZM564.879 420.678C575.882 432.336 586.533 441.889 588.601 441.889C592.815 441.889 593.166 126.174 588.952 110.399C586.572 101.349 585.597 102.166 564.021 131.265C519.425 191.473 504.95 228.05 505.028 280.056C505.145 333.791 523.326 376.496 564.879 420.678ZM633.587 647.714L631.129 660.284L639.557 649.285C685.401 589.517 718.995 559.036 829.451 476.926C855.748 457.38 888.405 429.853 902.021 415.713C924.066 392.899 938.073 375.899 934.913 375.899C929.606 375.93 805.338 428.942 786.454 439.249C739.947 464.608 696.053 504.076 673.384 540.873C658.363 565.258 640.259 613.808 633.587 647.714ZM523.912 579.807C543.03 598.945 559.456 613.997 560.431 613.211C563.279 610.948 541.664 557.968 530.935 540.873C496.093 485.379 448.727 451.536 350.678 412.036C334.72 405.594 314.978 396.953 306.784 392.805C298.63 388.657 291.958 386.583 291.958 388.248C291.958 395.696 343.226 441.417 381.033 467.688C463.826 525.224 489.772 545.556 523.912 579.807Z" fill="#042213" fill-opacity="0.15"/>
</svg>
