<svg xmlns="http://www.w3.org/2000/svg" width="480" height="520" viewBox="0 0 480 520" fill="none">
  <defs>
    <linearGradient id="skin" x1="0" y1="0" x2="0" y2="1">
      <stop offset="0" stop-color="#F8D3BE"/>
      <stop offset="1" stop-color="#E9B79C"/>
    </linearGradient>
    <linearGradient id="coat" x1="0" y1="0" x2="1" y2="1">
      <stop offset="0" stop-color="#F9FBFD"/>
      <stop offset="1" stop-color="#E6EEF3"/>
    </linearGradient>
    <linearGradient id="bg" x1="0" y1="0" x2="1" y2="1">
      <stop offset="0" stop-color="#e9f2f1"/>
      <stop offset="1" stop-color="#d8e7e5"/>
    </linearGradient>
  </defs>
  <rect width="480" height="520" rx="24" fill="url(#bg)"/>
  <!-- head -->
  <circle cx="240" cy="120" r="64" fill="url(#skin)"/>
  <!-- hair -->
  <path d="M184 120c0-38 28-64 56-64s56 26 56 64c-22-12-40-8-56-8s-34-4-56 8z" fill="#2e2e2e"/>
  <!-- neck -->
  <rect x="220" y="168" width="40" height="24" rx="10" fill="url(#skin)"/>
  <!-- coat -->
  <path d="M130 240c0-44 44-80 110-80s110 36 110 80v180H130V240z" fill="url(#coat)"/>
  <!-- shirt -->
  <rect x="205" y="192" width="70" height="80" rx="10" fill="#5c6a75"/>
  <!-- stethoscope -->
  <path d="M165 260c0 40 45 40 45 0" stroke="#3b5255" stroke-width="6" fill="none"/>
  <circle cx="210" cy="260" r="8" fill="#3b5255"/>
  <path d="M315 260c0 40-45 40-45 0" stroke="#3b5255" stroke-width="6" fill="none"/>
  <circle cx="270" cy="260" r="8" fill="#3b5255"/>
</svg>
