<svg width="136" height="96" viewBox="0 0 136 96" fill="none" xmlns="http://www.w3.org/2000/svg">
<path d="M69.2664 65.4703C68.0789 66.0748 67.8529 65.5042 67.6118 61.2965L67.3978 57.4917L66.5991 57.2416C66.1591 57.1057 64.6491 56.8119 63.2386 56.5885C50.1946 54.5271 41.8853 48.4206 38.9709 38.757C38.4043 36.8777 38.0215 25.5581 38.4314 22.8533L38.6906 21.1537L39.8751 22.9747C41.7678 25.8859 44.1337 27.5783 49.3838 29.7732C51.7799 30.7736 54.7576 32.1284 55.9993 32.7816C62.0481 35.9574 66.2043 41.1923 67.6359 47.4445C68.3351 50.4868 68.3713 50.5063 68.971 48.1729C70.4147 42.5423 72.871 38.7254 77.3797 35.1028C80.1676 32.8641 82.5425 31.5845 88.7149 28.9938C94.2062 26.692 96.111 25.4343 97.9735 22.8824C99.2183 21.1755 99.2394 21.1634 99.4353 21.8821C99.5438 22.2827 99.6523 25.8519 99.6704 29.8121C99.7095 37.6328 99.5106 39.1794 98.064 42.2776C95.692 47.3547 90.3936 51.866 83.9409 54.3013C81.4454 55.2434 76.0386 56.4962 73.0217 56.8313C72.1989 56.9211 71.1862 57.2028 70.7733 57.4529C70.0409 57.8972 70.0168 58.0162 69.8692 61.5757C69.7486 64.4748 69.625 65.2882 69.2664 65.4703ZM71.8282 35.7899C69.1518 38.1184 68.8716 38.2301 67.8619 37.3706C65.8215 35.6321 62.3766 31.9147 61.3821 30.3802C59.3688 27.2748 58.8655 25.5047 58.8956 21.6393C58.9197 18.6916 59.0282 17.9559 59.7244 16.1082C60.6919 13.5418 62.5334 10.531 65.1946 7.16088C67.2441 4.5653 67.6329 3.77133 67.9945 1.45013C68.2628 -0.259214 68.8143 -0.48745 69.2664 0.925669C69.9746 3.13761 70.5232 4.23994 71.792 5.99056C76.2676 12.1651 77.0844 13.4155 77.8107 15.1831C79.9656 20.4374 79.5588 25.5921 76.6112 30.3462C75.2399 32.5606 74.2604 33.6751 71.8282 35.7899ZM61.8281 54.4227C65.8004 55.1705 66.1259 55.1438 66.0204 54.0755C65.9059 52.9634 63.971 49.688 62.1024 47.4615C60.0047 44.9533 58.0517 43.2925 53.6244 40.2405C47.9522 36.3314 44.866 33.7455 42.7503 31.1329C41.7135 29.8558 40.731 28.8748 40.5682 28.9574C40.1011 29.1881 40.6014 36.1274 41.2644 38.6356C41.9396 41.1996 43.8383 44.5236 45.8606 46.6748C49.3236 50.3654 55.071 53.1528 61.8281 54.4227ZM71.9819 54.4785C71.9728 55.1025 75.258 54.6752 79.9777 53.4369C88.2478 51.2662 93.8114 46.8812 96.4485 40.4566C97.3316 38.3053 97.4039 37.8634 97.5275 33.8669C97.6872 28.7899 97.4612 28.076 96.2858 29.9432C94.9295 32.0993 91.9398 35.0275 88.4648 37.5964C78.6516 44.8538 76.1471 47.209 73.4798 51.6741C72.66 53.0508 71.9849 54.311 71.9819 54.4785ZM113.655 68.8647C113.468 69.0346 28.4796 69.0492 24.9624 68.8817C22.1474 68.7457 22.0962 68.7336 22.0088 68.1071C21.9576 67.7526 22.1354 67.2913 22.4096 67.0703C22.8647 66.7037 26.5417 66.677 68.2477 66.7353C108.058 66.7935 113.628 66.8445 113.869 67.1626C114.122 67.4904 113.986 68.5636 113.655 68.8647ZM70.0861 21.3819L69.9656 34.4788L71.4755 33.1579C74.5196 30.4943 76.1471 27.7919 76.7981 24.3247C77.651 19.7915 75.8788 14.6417 71.572 9.15187C70.8878 8.27778 70.3001 7.72661 70.267 7.92328C70.2338 8.12238 70.1525 14.1779 70.0861 21.3819ZM65.6347 32.5048C66.4846 33.4056 67.3074 34.1437 67.4671 34.1437C67.7926 34.1437 67.8197 9.74917 67.4942 8.53029C67.3104 7.83102 67.235 7.89415 65.5683 10.1425C62.1235 14.7946 61.0053 17.6209 61.0114 21.6393C61.0204 25.7912 62.4249 29.0909 65.6347 32.5048ZM70.9421 50.0474L70.7522 51.0186L71.4032 50.1688C74.9445 45.5506 77.5395 43.1954 86.0717 36.851C88.1031 35.3407 90.6257 33.2137 91.6776 32.1211C93.3804 30.3584 94.4624 29.0448 94.2183 29.0448C93.8084 29.0472 84.2092 33.1433 82.7505 33.9397C79.1579 35.8992 75.7673 38.9488 74.0162 41.792C72.8559 43.6762 71.4575 47.4275 70.9421 50.0474ZM62.4701 44.8004C63.9469 46.279 65.2157 47.4421 65.2911 47.3814C65.5111 47.2065 63.8414 43.1129 63.0126 41.792C60.3212 37.5041 56.6623 34.8891 49.0885 31.837C47.8558 31.3393 46.3308 30.6716 45.6979 30.3511C45.068 30.0306 44.5526 29.8703 44.5526 29.999C44.5526 30.5745 48.5128 34.1073 51.4333 36.1371C57.8287 40.5829 59.8329 42.1538 62.4701 44.8004Z" fill="#DAA520"/>
<path d="M0.571289 80.2334C1.66504 80.2725 2.51465 80.292 3.12012 80.292C3.72559 80.292 4.5752 80.2725 5.66895 80.2334C5.68848 80.3115 5.69824 80.3652 5.69824 80.3945C5.69824 80.4482 5.68848 80.5093 5.66895 80.5776C5.44434 80.5972 5.26123 80.6191 5.11963 80.6436C4.98291 80.6631 4.81201 80.6973 4.60693 80.7461C4.40674 80.7949 4.25293 80.8657 4.14551 80.9585C4.03809 81.0464 3.98193 81.1538 3.97705 81.2808C3.91357 82.9409 3.88184 84.4863 3.88184 85.917C3.88184 86.9619 3.90869 88.3218 3.9624 89.9966C3.96729 90.1235 4.02344 90.2334 4.13086 90.3262C4.23828 90.4141 4.39209 90.4824 4.59229 90.5312C4.79736 90.5801 4.96826 90.6167 5.10498 90.6411C5.24658 90.6606 5.42969 90.6802 5.6543 90.6997C5.67383 90.7583 5.68359 90.8242 5.68359 90.8975C5.68359 90.9365 5.67383 90.9854 5.6543 91.0439C4.82422 91.0146 3.97461 91 3.10547 91C2.22656 91 1.37695 91.0146 0.556641 91.0439C0.537109 90.9854 0.527344 90.9365 0.527344 90.8975C0.527344 90.8145 0.537109 90.7485 0.556641 90.6997C0.703125 90.6851 0.820312 90.6729 0.908203 90.6631C0.996094 90.6533 1.11572 90.6362 1.26709 90.6118C1.42334 90.5874 1.54785 90.5605 1.64062 90.5312C1.73828 90.4971 1.83838 90.4556 1.94092 90.4067C2.04346 90.3579 2.11914 90.2993 2.16797 90.231C2.22168 90.1626 2.24854 90.0845 2.24854 89.9966C2.30713 88.4683 2.33643 86.9277 2.33643 85.375C2.33643 83.793 2.31201 82.4282 2.26318 81.2808C2.2583 81.1538 2.20215 81.0464 2.09473 80.9585C1.9873 80.8657 1.83105 80.7949 1.62598 80.7461C1.42578 80.6973 1.25488 80.6631 1.11328 80.6436C0.976562 80.6191 0.795898 80.5972 0.571289 80.5776C0.551758 80.4897 0.541992 80.4287 0.541992 80.3945C0.541992 80.3457 0.551758 80.292 0.571289 80.2334ZM6.79688 80.2334C7.59766 80.2725 8.6084 80.292 9.8291 80.292C13.2812 84.6182 15.1367 86.9229 15.3955 87.2061C15.6543 87.4844 15.7837 87.6235 15.7837 87.6235H15.8423C15.8618 86.686 15.8716 85.9316 15.8716 85.3604C15.8716 84.2324 15.8472 82.9067 15.7983 81.3833C15.7886 80.9438 15.2466 80.6753 14.1724 80.5776C14.1528 80.4702 14.1431 80.4043 14.1431 80.3799C14.1431 80.3408 14.1528 80.292 14.1724 80.2334C14.9585 80.2627 15.6543 80.2773 16.2598 80.2773C16.6504 80.2773 17.3047 80.2627 18.2227 80.2334C18.2422 80.292 18.252 80.3408 18.252 80.3799C18.252 80.458 18.2422 80.5239 18.2227 80.5776C17.1533 80.6753 16.6138 80.9438 16.604 81.3833C16.5454 82.9116 16.5161 84.418 16.5161 85.9023C16.5161 88.1729 16.5405 89.8818 16.5894 91.0293L16.4575 91.0439L9.17725 82.0864H9.104C9.07471 83.3511 9.06006 84.6279 9.06006 85.917C9.06006 87.0498 9.08447 88.373 9.1333 89.8867C9.14307 90.3311 9.68262 90.6021 10.752 90.6997C10.7764 90.7827 10.7886 90.8486 10.7886 90.8975C10.7886 90.9463 10.7764 90.9951 10.752 91.0439C9.97559 91.0146 9.28223 91 8.67188 91C8.28125 91 7.62695 91.0146 6.70898 91.0439C6.68457 90.9951 6.67236 90.9463 6.67236 90.8975C6.67236 90.8145 6.68457 90.7485 6.70898 90.6997C7.78809 90.5972 8.32764 90.3262 8.32764 89.8867C8.38623 88.3633 8.41553 86.8594 8.41553 85.375C8.41553 83.7637 8.396 82.3647 8.35693 81.1782C7.94678 80.8218 7.42676 80.6216 6.79688 80.5776C6.76758 80.5142 6.75293 80.458 6.75293 80.4092C6.75293 80.3359 6.76758 80.2773 6.79688 80.2334ZM26.3232 83.3315C26.1377 82.438 25.7959 81.7446 25.2979 81.2515C24.8047 80.7583 24.2114 80.5117 23.5181 80.5117C22.8394 80.5117 22.312 80.6729 21.936 80.9951C21.5649 81.3174 21.3794 81.7471 21.3794 82.2842C21.3794 82.582 21.4062 82.8286 21.46 83.0239C21.5137 83.2192 21.6235 83.4097 21.7896 83.5952C21.9556 83.7759 22.1973 83.937 22.5146 84.0786C22.832 84.2153 23.2471 84.3472 23.7598 84.4741C24.0381 84.5425 24.2798 84.606 24.4849 84.6646C24.6948 84.7231 24.9243 84.8037 25.1733 84.9062C25.4272 85.0088 25.6445 85.1187 25.8252 85.2358C26.0107 85.353 26.1938 85.4995 26.3745 85.6753C26.5601 85.8462 26.709 86.0366 26.8213 86.2466C26.9385 86.4565 27.0312 86.7056 27.0996 86.9937C27.1729 87.2769 27.2095 87.5869 27.2095 87.9238C27.2095 88.373 27.1265 88.7881 26.9604 89.1689C26.7944 89.5449 26.5771 89.8623 26.3086 90.1211C26.04 90.3799 25.73 90.5996 25.3784 90.7803C25.0269 90.9609 24.6704 91.0928 24.3091 91.1758C23.9478 91.2588 23.5889 91.3003 23.2324 91.3003C22.1484 91.3003 20.9937 91.0195 19.7681 90.458C19.7925 89.9307 19.8047 89.606 19.8047 89.4839C19.8047 88.688 19.7388 87.8945 19.6069 87.1035C19.6606 87.0693 19.7144 87.0522 19.7681 87.0522C19.8364 87.0522 19.8975 87.0693 19.9512 87.1035C20.0537 87.7334 20.2222 88.29 20.4565 88.7734C20.6958 89.2568 20.9692 89.6401 21.2769 89.9233C21.5845 90.2017 21.9019 90.4116 22.229 90.5532C22.561 90.6899 22.8955 90.7583 23.2324 90.7583C23.999 90.7583 24.5874 90.5605 24.9976 90.165C25.4126 89.7646 25.6201 89.2373 25.6201 88.583C25.6201 87.9238 25.4663 87.4282 25.1587 87.0962C24.856 86.7593 24.2749 86.4858 23.4155 86.2759C22.3413 86.0073 21.5015 85.6118 20.896 85.0894C20.2954 84.562 19.9951 83.8662 19.9951 83.002C19.9951 82.5479 20.0684 82.1426 20.2148 81.7861C20.3662 81.4248 20.5591 81.1367 20.7935 80.9219C21.0327 80.7021 21.311 80.5215 21.6284 80.3799C21.9458 80.2334 22.2583 80.1333 22.5659 80.0796C22.8784 80.021 23.1958 79.9917 23.5181 79.9917C24.4849 79.9917 25.4907 80.2163 26.5356 80.6655C26.5063 80.9536 26.4917 81.2539 26.4917 81.5664C26.4917 82.2988 26.5503 82.8872 26.6675 83.3315C26.604 83.356 26.5503 83.3682 26.5063 83.3682C26.4575 83.3682 26.3965 83.356 26.3232 83.3315ZM29.2676 80.2334C29.7998 80.2529 30.4639 80.2676 31.2598 80.2773C32.0557 80.2871 32.9907 80.292 34.0649 80.292C35.1392 80.292 36.0742 80.2871 36.8701 80.2773C37.6709 80.2676 38.3398 80.2529 38.877 80.2334C38.9062 80.4434 38.9429 80.646 38.9868 80.8413C39.0308 81.0317 39.104 81.2441 39.2065 81.4785L39.4263 81.9766L39.9609 83.0166C39.9268 83.0947 39.8413 83.1606 39.7046 83.2144C39.5386 82.9067 39.3359 82.6138 39.0967 82.3354C38.8574 82.0571 38.5522 81.8057 38.1812 81.5811C37.8149 81.3564 37.3657 81.1685 36.8335 81.0171C36.3062 80.8657 35.6689 80.7632 34.9219 80.7095C34.8975 81.3198 34.8779 82.0107 34.8633 82.7822C34.8535 83.5488 34.8486 84.4033 34.8486 85.3457C34.8486 86.293 34.8535 87.1523 34.8633 87.9238C34.8779 88.6953 34.8975 89.3862 34.9219 89.9966C34.9268 90.1138 34.9731 90.2139 35.061 90.2969C35.1489 90.375 35.2686 90.4409 35.4199 90.4946C35.5762 90.5483 35.7544 90.5923 35.9546 90.6265C36.1597 90.6558 36.3794 90.6802 36.6138 90.6997C36.6333 90.7827 36.6431 90.8486 36.6431 90.8975C36.6431 90.9414 36.6333 90.9902 36.6138 91.0439C35.7935 91.0146 34.9438 91 34.0649 91C33.1909 91 32.3413 91.0146 31.5161 91.0439C31.4966 90.9902 31.4868 90.9414 31.4868 90.8975C31.4868 90.8486 31.4966 90.7827 31.5161 90.6997L31.8677 90.6631C31.9946 90.6484 32.1362 90.6289 32.2925 90.6045C32.4487 90.5752 32.5928 90.5361 32.7246 90.4873C32.8613 90.4385 32.9761 90.3774 33.0688 90.3042C33.1616 90.231 33.208 90.1406 33.208 90.0332V89.9966C33.2324 89.103 33.252 88.2705 33.2666 87.499C33.2812 86.7275 33.2886 86.0098 33.2886 85.3457C33.2886 84.6865 33.2812 83.9736 33.2666 83.207C33.252 82.4355 33.2324 81.603 33.208 80.7095C32.5049 80.7485 31.8921 80.8438 31.3696 80.9951C30.8521 81.1416 30.4028 81.3271 30.022 81.5518C29.6411 81.7715 29.3237 82.0254 29.0698 82.3135C28.8159 82.5967 28.606 82.897 28.4399 83.2144C28.3032 83.1606 28.2178 83.0947 28.1836 83.0166L28.5132 82.394L28.667 82.0791C28.7305 81.9473 28.7939 81.813 28.8574 81.6763C28.9209 81.5396 28.9795 81.3979 29.0332 81.2515C29.0918 81.1001 29.1406 80.9414 29.1797 80.7754C29.2188 80.6045 29.248 80.4238 29.2676 80.2334ZM40.6055 80.2334C41.6992 80.2725 42.5488 80.292 43.1543 80.292C43.7598 80.292 44.6094 80.2725 45.7031 80.2334C45.7227 80.3115 45.7324 80.3652 45.7324 80.3945C45.7324 80.4482 45.7227 80.5093 45.7031 80.5776C45.4785 80.5972 45.2954 80.6191 45.1538 80.6436C45.0171 80.6631 44.8462 80.6973 44.6411 80.7461C44.4409 80.7949 44.2871 80.8657 44.1797 80.9585C44.0723 81.0464 44.0161 81.1538 44.0112 81.2808C43.9478 82.9409 43.916 84.4863 43.916 85.917C43.916 86.9619 43.9429 88.3218 43.9966 89.9966C44.0015 90.1235 44.0576 90.2334 44.165 90.3262C44.2725 90.4141 44.4263 90.4824 44.6265 90.5312C44.8315 90.5801 45.0024 90.6167 45.1392 90.6411C45.2808 90.6606 45.4639 90.6802 45.6885 90.6997C45.708 90.7583 45.7178 90.8242 45.7178 90.8975C45.7178 90.9365 45.708 90.9854 45.6885 91.0439C44.8584 91.0146 44.0088 91 43.1396 91C42.2607 91 41.4111 91.0146 40.5908 91.0439C40.5713 90.9854 40.5615 90.9365 40.5615 90.8975C40.5615 90.8145 40.5713 90.7485 40.5908 90.6997C40.7373 90.6851 40.8545 90.6729 40.9424 90.6631C41.0303 90.6533 41.1499 90.6362 41.3013 90.6118C41.4575 90.5874 41.582 90.5605 41.6748 90.5312C41.7725 90.4971 41.8726 90.4556 41.9751 90.4067C42.0776 90.3579 42.1533 90.2993 42.2021 90.231C42.2559 90.1626 42.2827 90.0845 42.2827 89.9966C42.3413 88.4683 42.3706 86.9277 42.3706 85.375C42.3706 83.793 42.3462 82.4282 42.2974 81.2808C42.2925 81.1538 42.2363 81.0464 42.1289 80.9585C42.0215 80.8657 41.8652 80.7949 41.6602 80.7461C41.46 80.6973 41.2891 80.6631 41.1475 80.6436C41.0107 80.6191 40.8301 80.5972 40.6055 80.5776C40.5859 80.4897 40.5762 80.4287 40.5762 80.3945C40.5762 80.3457 40.5859 80.292 40.6055 80.2334ZM47.417 80.2334C47.9492 80.2529 48.6133 80.2676 49.4092 80.2773C50.2051 80.2871 51.1401 80.292 52.2144 80.292C53.2886 80.292 54.2236 80.2871 55.0195 80.2773C55.8203 80.2676 56.4893 80.2529 57.0264 80.2334C57.0557 80.4434 57.0923 80.646 57.1362 80.8413C57.1802 81.0317 57.2534 81.2441 57.356 81.4785L57.5757 81.9766L58.1104 83.0166C58.0762 83.0947 57.9907 83.1606 57.854 83.2144C57.688 82.9067 57.4854 82.6138 57.2461 82.3354C57.0068 82.0571 56.7017 81.8057 56.3306 81.5811C55.9644 81.3564 55.5151 81.1685 54.9829 81.0171C54.4556 80.8657 53.8184 80.7632 53.0713 80.7095C53.0469 81.3198 53.0273 82.0107 53.0127 82.7822C53.0029 83.5488 52.998 84.4033 52.998 85.3457C52.998 86.293 53.0029 87.1523 53.0127 87.9238C53.0273 88.6953 53.0469 89.3862 53.0713 89.9966C53.0762 90.1138 53.1226 90.2139 53.2104 90.2969C53.2983 90.375 53.418 90.4409 53.5693 90.4946C53.7256 90.5483 53.9038 90.5923 54.104 90.6265C54.3091 90.6558 54.5288 90.6802 54.7632 90.6997C54.7827 90.7827 54.7925 90.8486 54.7925 90.8975C54.7925 90.9414 54.7827 90.9902 54.7632 91.0439C53.9429 91.0146 53.0933 91 52.2144 91C51.3403 91 50.4907 91.0146 49.6655 91.0439C49.646 90.9902 49.6362 90.9414 49.6362 90.8975C49.6362 90.8486 49.646 90.7827 49.6655 90.6997L50.0171 90.6631C50.144 90.6484 50.2856 90.6289 50.4419 90.6045C50.5981 90.5752 50.7422 90.5361 50.874 90.4873C51.0107 90.4385 51.1255 90.3774 51.2183 90.3042C51.311 90.231 51.3574 90.1406 51.3574 90.0332V89.9966C51.3818 89.103 51.4014 88.2705 51.416 87.499C51.4307 86.7275 51.438 86.0098 51.438 85.3457C51.438 84.6865 51.4307 83.9736 51.416 83.207C51.4014 82.4355 51.3818 81.603 51.3574 80.7095C50.6543 80.7485 50.0415 80.8438 49.519 80.9951C49.0015 81.1416 48.5522 81.3271 48.1714 81.5518C47.7905 81.7715 47.4731 82.0254 47.2192 82.3135C46.9653 82.5967 46.7554 82.897 46.5894 83.2144C46.4526 83.1606 46.3672 83.0947 46.333 83.0166L46.6626 82.394L46.8164 82.0791C46.8799 81.9473 46.9434 81.813 47.0068 81.6763C47.0703 81.5396 47.1289 81.3979 47.1826 81.2515C47.2412 81.1001 47.29 80.9414 47.3291 80.7754C47.3682 80.6045 47.3975 80.4238 47.417 80.2334ZM58.5132 80.2334C59.3384 80.2627 60.188 80.2773 61.062 80.2773C61.9409 80.2773 62.7905 80.2627 63.6108 80.2334C63.6304 80.3115 63.6401 80.3652 63.6401 80.3945C63.6401 80.4287 63.6304 80.4897 63.6108 80.5776C63.4644 80.5923 63.3472 80.6045 63.2593 80.6143C63.1714 80.624 63.0493 80.6411 62.8931 80.6655C62.7417 80.6899 62.6172 80.7192 62.5195 80.7534C62.4268 80.7827 62.3291 80.8218 62.2266 80.8706C62.124 80.9194 62.0459 80.978 61.9922 81.0464C61.9434 81.1147 61.9189 81.1929 61.9189 81.2808C61.8994 81.9302 61.8896 83.7148 61.8896 86.6348C61.8896 88.0264 62.1216 89.0371 62.5854 89.667C63.0542 90.2969 63.8477 90.6118 64.9658 90.6118C66.0938 90.6118 66.9629 90.27 67.5732 89.5864C68.1836 88.8979 68.4888 87.9141 68.4888 86.6348C68.4888 84.3057 68.4741 82.5552 68.4448 81.3833C68.4351 80.9438 67.8955 80.6753 66.8262 80.5776C66.8066 80.4702 66.7969 80.4043 66.7969 80.3799C66.7969 80.3408 66.8066 80.292 66.8262 80.2334C67.6025 80.2627 68.2959 80.2773 68.9062 80.2773C69.2969 80.2773 69.9536 80.2627 70.8765 80.2334C70.896 80.292 70.9058 80.3408 70.9058 80.3799C70.9058 80.458 70.896 80.5239 70.8765 80.5776C69.8169 80.6753 69.2749 80.9438 69.2505 81.3833C69.2017 82.5454 69.1772 84.2959 69.1772 86.6348C69.1772 87.3477 69.0845 87.9849 68.8989 88.5464C68.7134 89.103 68.4766 89.5498 68.1885 89.8867C67.9004 90.2236 67.5635 90.502 67.1777 90.7217C66.7969 90.9414 66.4282 91.0928 66.0718 91.1758C65.7153 91.2588 65.3564 91.3003 64.9951 91.3003C64.5117 91.3003 64.0771 91.2734 63.6914 91.2197C63.3057 91.166 62.9297 91.0757 62.5635 90.9487C62.1973 90.8169 61.8799 90.6362 61.6113 90.4067C61.3428 90.1724 61.106 89.8867 60.9009 89.5498C60.6958 89.2129 60.542 88.8003 60.4395 88.312C60.3369 87.8237 60.2856 87.2646 60.2856 86.6348V85.4336C60.2856 83.7979 60.2588 82.4136 60.2051 81.2808C60.2002 81.1538 60.144 81.0464 60.0366 80.9585C59.9292 80.8657 59.7729 80.7949 59.5679 80.7461C59.3677 80.6973 59.1968 80.6631 59.0552 80.6436C58.9185 80.6191 58.7378 80.5972 58.5132 80.5776C58.4937 80.4897 58.4839 80.4287 58.4839 80.3945C58.4839 80.3652 58.4937 80.3115 58.5132 80.2334ZM72.29 80.2334C72.8223 80.2529 73.4863 80.2676 74.2822 80.2773C75.0781 80.2871 76.0132 80.292 77.0874 80.292C78.1616 80.292 79.0967 80.2871 79.8926 80.2773C80.6934 80.2676 81.3623 80.2529 81.8994 80.2334C81.9287 80.4434 81.9653 80.646 82.0093 80.8413C82.0532 81.0317 82.1265 81.2441 82.229 81.4785L82.4487 81.9766L82.9834 83.0166C82.9492 83.0947 82.8638 83.1606 82.7271 83.2144C82.561 82.9067 82.3584 82.6138 82.1191 82.3354C81.8799 82.0571 81.5747 81.8057 81.2036 81.5811C80.8374 81.3564 80.3882 81.1685 79.856 81.0171C79.3286 80.8657 78.6914 80.7632 77.9443 80.7095C77.9199 81.3198 77.9004 82.0107 77.8857 82.7822C77.876 83.5488 77.8711 84.4033 77.8711 85.3457C77.8711 86.293 77.876 87.1523 77.8857 87.9238C77.9004 88.6953 77.9199 89.3862 77.9443 89.9966C77.9492 90.1138 77.9956 90.2139 78.0835 90.2969C78.1714 90.375 78.291 90.4409 78.4424 90.4946C78.5986 90.5483 78.7769 90.5923 78.9771 90.6265C79.1821 90.6558 79.4019 90.6802 79.6362 90.6997C79.6558 90.7827 79.6655 90.8486 79.6655 90.8975C79.6655 90.9414 79.6558 90.9902 79.6362 91.0439C78.8159 91.0146 77.9663 91 77.0874 91C76.2134 91 75.3638 91.0146 74.5386 91.0439C74.519 90.9902 74.5093 90.9414 74.5093 90.8975C74.5093 90.8486 74.519 90.7827 74.5386 90.6997L74.8901 90.6631C75.0171 90.6484 75.1587 90.6289 75.3149 90.6045C75.4712 90.5752 75.6152 90.5361 75.7471 90.4873C75.8838 90.4385 75.9985 90.3774 76.0913 90.3042C76.1841 90.231 76.2305 90.1406 76.2305 90.0332V89.9966C76.2549 89.103 76.2744 88.2705 76.2891 87.499C76.3037 86.7275 76.311 86.0098 76.311 85.3457C76.311 84.6865 76.3037 83.9736 76.2891 83.207C76.2744 82.4355 76.2549 81.603 76.2305 80.7095C75.5273 80.7485 74.9146 80.8438 74.3921 80.9951C73.8745 81.1416 73.4253 81.3271 73.0444 81.5518C72.6636 81.7715 72.3462 82.0254 72.0923 82.3135C71.8384 82.5967 71.6284 82.897 71.4624 83.2144C71.3257 83.1606 71.2402 83.0947 71.2061 83.0166L71.5356 82.394L71.6895 82.0791C71.7529 81.9473 71.8164 81.813 71.8799 81.6763C71.9434 81.5396 72.002 81.3979 72.0557 81.2515C72.1143 81.1001 72.1631 80.9414 72.2021 80.7754C72.2412 80.6045 72.2705 80.4238 72.29 80.2334ZM89.6191 79.9844C89.9951 79.9844 90.3906 80.0234 90.8057 80.1016C91.2256 80.1797 91.6382 80.3091 92.0435 80.4897C92.4536 80.6655 92.8442 80.8999 93.2153 81.1929C93.5913 81.481 93.9209 81.835 94.2041 82.2549C94.4873 82.6748 94.7119 83.1655 94.8779 83.7271C95.0488 84.2886 95.1343 84.9331 95.1343 85.6606C95.1343 86.3931 95.0513 87.0425 94.8853 87.6089C94.7192 88.1704 94.4946 88.6611 94.2114 89.0811C93.9282 89.4961 93.5986 89.8477 93.2227 90.1357C92.8516 90.4189 92.4585 90.6484 92.0435 90.8242C91.6333 90.9951 91.2134 91.1172 90.7837 91.1904C90.354 91.2686 89.9438 91.3076 89.5532 91.3076C89.1821 91.3076 88.7866 91.2686 88.3667 91.1904C87.9517 91.1172 87.5391 90.9951 87.1289 90.8242C86.7188 90.6484 86.3257 90.4189 85.9497 90.1357C85.5786 89.8477 85.249 89.4961 84.9609 89.0811C84.6777 88.6611 84.4507 88.1704 84.2798 87.6089C84.1138 87.0425 84.0308 86.3931 84.0308 85.6606C84.0308 84.9087 84.1187 84.2471 84.2944 83.6758C84.4702 83.0996 84.7021 82.6016 84.9902 82.1816C85.2832 81.7617 85.6201 81.4126 86.001 81.1343C86.3867 80.8511 86.7847 80.624 87.1948 80.4531C87.6099 80.2822 88.0249 80.1626 88.4399 80.0942C88.8599 80.021 89.2529 79.9844 89.6191 79.9844ZM89.5825 80.5117C89.1235 80.5117 88.7158 80.5874 88.3594 80.7388C88.0029 80.8901 87.6904 81.0952 87.4219 81.354C87.1533 81.6079 86.9263 81.9058 86.7407 82.2476C86.5552 82.5845 86.4038 82.9434 86.2866 83.3242C86.1743 83.7051 86.0913 84.0957 86.0376 84.4961C85.9888 84.8965 85.9644 85.2847 85.9644 85.6606C85.9644 86.022 85.9888 86.3979 86.0376 86.7886C86.0864 87.1792 86.167 87.5649 86.2793 87.9458C86.3916 88.3218 86.5381 88.6807 86.7188 89.0225C86.9043 89.3643 87.1313 89.6646 87.3999 89.9233C87.6685 90.1821 87.981 90.3896 88.3374 90.5459C88.6987 90.6973 89.1138 90.7729 89.5825 90.7729C90.0415 90.7729 90.4492 90.6997 90.8057 90.5532C91.1621 90.4019 91.4746 90.1992 91.7432 89.9453C92.0117 89.6865 92.2363 89.3887 92.417 89.0518C92.6025 88.71 92.7515 88.3511 92.8638 87.9751C92.981 87.5942 93.064 87.2061 93.1128 86.8105C93.1665 86.415 93.1934 86.0317 93.1934 85.6606C93.1934 85.2847 93.1665 84.8965 93.1128 84.4961C93.064 84.0957 92.981 83.7051 92.8638 83.3242C92.7515 82.9434 92.6025 82.5845 92.417 82.2476C92.2314 81.9058 92.0044 81.6079 91.7358 81.354C91.4673 81.0952 91.1548 80.8901 90.7983 80.7388C90.4419 80.5874 90.0366 80.5117 89.5825 80.5117ZM100.576 80.2334C101.67 80.2725 102.524 80.292 103.14 80.292C107.329 80.2676 109.648 80.248 110.098 80.2334C110.161 80.7217 110.286 81.1855 110.471 81.625C110.657 82.0596 110.894 82.5234 111.182 83.0166C111.143 83.0996 111.057 83.1655 110.925 83.2144C110.75 82.8823 110.537 82.5869 110.288 82.3281C110.039 82.0693 109.724 81.8252 109.343 81.5957C108.967 81.3662 108.496 81.1782 107.93 81.0317C107.368 80.8853 106.726 80.7876 106.003 80.7388H103.982C103.918 82.8042 103.887 84.3594 103.887 85.4043H105.974C106.116 85.4043 106.248 85.3945 106.37 85.375C106.497 85.3506 106.614 85.3115 106.721 85.2578C106.829 85.1992 106.924 85.1455 107.007 85.0967C107.095 85.043 107.183 84.9648 107.271 84.8623C107.358 84.7549 107.432 84.667 107.49 84.5986C107.549 84.5254 107.62 84.4155 107.703 84.269C107.786 84.1226 107.849 84.0078 107.893 83.9248C107.937 83.8418 108.003 83.7124 108.091 83.5366C108.184 83.3608 108.254 83.229 108.303 83.1411C108.455 83.1997 108.547 83.2632 108.582 83.3315C108.376 83.6929 108.203 84.0933 108.062 84.5327C107.92 84.9722 107.849 85.3384 107.849 85.6313C107.849 86.3247 108.093 87.0889 108.582 87.9238C108.542 88.002 108.45 88.0679 108.303 88.1216C108.25 88.0239 108.174 87.8848 108.076 87.7041C107.983 87.5186 107.91 87.377 107.856 87.2793C107.803 87.1816 107.729 87.0571 107.637 86.9058C107.544 86.7544 107.461 86.6372 107.388 86.5542C107.319 86.4712 107.229 86.3784 107.117 86.2759C107.009 86.1733 106.902 86.0977 106.794 86.0488C106.687 85.9951 106.562 85.9512 106.421 85.917C106.284 85.8779 106.135 85.8584 105.974 85.8584H103.887C103.887 86.6348 103.914 88.1997 103.967 90.5532H106.304C107.026 90.5044 107.668 90.4067 108.23 90.2603C108.796 90.1138 109.268 89.9258 109.644 89.6963C110.024 89.4668 110.339 89.2227 110.588 88.9639C110.837 88.7051 111.05 88.4097 111.226 88.0776C111.357 88.1265 111.443 88.1899 111.482 88.2681C111.458 88.3169 111.394 88.4341 111.292 88.6196C111.189 88.8052 111.121 88.9321 111.086 89.0005C111.052 89.064 110.994 89.1787 110.911 89.3447C110.833 89.5059 110.774 89.6377 110.735 89.7402C110.696 89.8379 110.649 89.9624 110.596 90.1138C110.547 90.2651 110.505 90.4141 110.471 90.5605C110.442 90.7021 110.417 90.8486 110.398 91H103.967C102.644 91 101.509 91.0146 100.562 91.0439C100.542 90.9854 100.532 90.9365 100.532 90.8975C100.532 90.8633 100.542 90.7974 100.562 90.6997C100.786 90.6802 100.967 90.6606 101.104 90.6411C101.245 90.6167 101.416 90.5801 101.616 90.5312C101.821 90.4824 101.978 90.4141 102.085 90.3262C102.192 90.2334 102.249 90.1235 102.253 89.9966C102.312 88.4683 102.341 86.9277 102.341 85.375C102.341 83.793 102.317 82.4282 102.268 81.2808C102.263 81.1538 102.207 81.0464 102.1 80.9585C101.992 80.8657 101.836 80.7949 101.631 80.7461C101.431 80.6973 101.26 80.6631 101.118 80.6436C100.981 80.6191 100.801 80.5972 100.576 80.5776C100.557 80.4897 100.547 80.4287 100.547 80.3945C100.547 80.3652 100.557 80.3115 100.576 80.2334ZM111.812 80.2334C112.915 80.2725 113.784 80.292 114.419 80.292C115.342 80.292 116.167 80.2725 116.895 80.2334C116.914 80.3115 116.924 80.3652 116.924 80.3945C116.924 80.4482 116.914 80.5093 116.895 80.5776C116.25 80.5972 115.813 80.646 115.583 80.7241C115.359 80.7974 115.247 80.9268 115.247 81.1123C115.247 81.1172 115.281 81.2393 115.349 81.4785L118.396 88.5537H118.469L121.326 81.3833C121.355 81.3101 121.37 81.2148 121.37 81.0977C121.37 80.9365 121.282 80.8218 121.106 80.7534C120.93 80.6851 120.627 80.6265 120.198 80.5776C120.178 80.4702 120.168 80.4043 120.168 80.3799C120.168 80.3408 120.178 80.292 120.198 80.2334C120.828 80.2627 121.396 80.2773 121.904 80.2773C122.461 80.2773 123.018 80.2627 123.574 80.2334C123.594 80.292 123.604 80.3408 123.604 80.3799C123.604 80.458 123.594 80.5239 123.574 80.5776C123.208 80.6118 122.903 80.6875 122.659 80.8047C122.419 80.917 122.234 81.1099 122.102 81.3833L118.14 91.2124H117.795L113.54 81.4785C113.315 80.9658 112.739 80.6655 111.812 80.5776C111.792 80.4897 111.782 80.4287 111.782 80.3945C111.782 80.3457 111.792 80.292 111.812 80.2334ZM129.324 80.1235C129.397 80.0698 129.475 80.0356 129.558 80.021L133.564 90.0259C133.613 90.1479 133.694 90.2529 133.806 90.3408C133.918 90.4238 134.058 90.4897 134.224 90.5386C134.395 90.5825 134.541 90.6167 134.663 90.6411C134.79 90.6606 134.944 90.6802 135.125 90.6997C135.144 90.7778 135.154 90.8438 135.154 90.8975C135.154 90.9561 135.144 91.0098 135.125 91.0586C134.07 91.0195 133.281 91 132.759 91C132.192 91 131.372 91.0195 130.298 91.0586C130.278 91 130.269 90.9414 130.269 90.8828C130.269 90.8193 130.278 90.7583 130.298 90.6997C131.284 90.5923 131.777 90.4067 131.777 90.1431C131.777 90.0601 131.768 89.9746 131.748 89.8867L130.686 87.1621C130.364 87.1523 129.929 87.1475 129.382 87.1475C129.124 87.1475 128.452 87.1572 127.368 87.1768L126.248 90.0259V90.1138C126.248 90.1626 126.255 90.209 126.27 90.2529C126.289 90.2969 126.318 90.3359 126.357 90.3701C126.401 90.4043 126.443 90.4336 126.482 90.458C126.521 90.4824 126.575 90.5068 126.643 90.5312C126.716 90.5508 126.777 90.5679 126.826 90.5825C126.88 90.5923 126.951 90.6045 127.039 90.6191C127.131 90.6338 127.202 90.646 127.251 90.6558C127.3 90.6606 127.371 90.668 127.463 90.6777C127.561 90.6875 127.629 90.6948 127.668 90.6997C127.688 90.7778 127.698 90.8438 127.698 90.8975C127.698 90.9268 127.688 90.9805 127.668 91.0586C126.575 91.0195 125.959 91 125.823 91C125.559 91 124.88 91.0195 123.787 91.0586C123.767 91 123.757 90.9414 123.757 90.8828C123.757 90.8193 123.767 90.7583 123.787 90.6997C124.802 90.5825 125.381 90.3335 125.522 89.9526L128.672 82.0132L128.511 81.5811C128.789 81.3955 128.982 81.1953 129.089 80.9805C129.202 80.7656 129.28 80.48 129.324 80.1235ZM129.382 86.5762C129.832 86.5762 130.186 86.5713 130.444 86.5615L129.053 82.958H129.023L127.625 86.5469C128.083 86.5664 128.669 86.5762 129.382 86.5762Z" fill="#DAA520"/>
</svg>
